<svg
    xmlns="http://www.w3.org/2000/svg"
    viewBox="0 0 237 237"
    id="vector">
    <path
        id="path"
        d="M 118.5 118.5 M 0 118.5 C 0 87.084 12.493 56.922 34.708 34.708 C 56.922 12.493 87.084 0 118.5 0 C 149.916 0 180.078 12.493 202.292 34.708 C 224.507 56.922 237 87.084 237 118.5 C 237 149.916 224.507 180.078 202.292 202.292 C 180.078 224.507 149.916 237 118.5 237 C 87.084 237 56.922 224.507 34.708 202.292 C 12.493 180.078 0 149.916 0 118.5"
        fill="#0a306a"/>
    <path
        id="path_1"
        d="M 72.88 70.88 M 57 70.88 C 56.914 67.474 57.928 64.129 59.889 61.342 C 61.85 58.555 64.657 56.473 67.892 55.404 C 71.127 54.334 74.623 54.334 77.858 55.404 C 81.093 56.473 83.9 58.555 85.861 61.342 C 87.822 64.129 88.836 67.474 88.75 70.88 C 88.836 74.286 87.822 77.631 85.861 80.418 C 83.9 83.205 81.093 85.287 77.858 86.356 C 74.623 87.426 71.127 87.426 67.892 86.356 C 64.657 85.287 61.85 83.205 59.889 80.418 C 57.928 77.631 56.914 74.286 57 70.88"
        fill="#33e5fd"/>
    <path
        id="path_2"
        d="M 72.88 102.63 M 57 102.63 C 56.914 99.224 57.928 95.879 59.889 93.092 C 61.85 90.305 64.657 88.223 67.892 87.154 C 71.127 86.084 74.623 86.084 77.858 87.154 C 81.093 88.223 83.9 90.305 85.861 93.092 C 87.822 95.879 88.836 99.224 88.75 102.63 C 88.836 106.036 87.822 109.381 85.861 112.168 C 83.9 114.955 81.093 117.037 77.858 118.106 C 74.623 119.176 71.127 119.176 67.892 118.106 C 64.657 117.037 61.85 114.955 59.889 112.168 C 57.928 109.381 56.914 106.036 57 102.63"
        fill="#407ad2"/>
    <path
        id="path_3"
        d="M 72.88 134.38 M 57 134.38 C 56.914 130.974 57.928 127.629 59.889 124.842 C 61.85 122.055 64.657 119.973 67.892 118.904 C 71.127 117.834 74.623 117.834 77.858 118.904 C 81.093 119.973 83.9 122.055 85.861 124.842 C 87.822 127.629 88.836 130.974 88.75 134.38 C 88.836 137.786 87.822 141.131 85.861 143.918 C 83.9 146.705 81.093 148.787 77.858 149.856 C 74.623 150.926 71.127 150.926 67.892 149.856 C 64.657 148.787 61.85 146.705 59.889 143.918 C 57.928 141.131 56.914 137.786 57 134.38"
        fill="#33e5fd"/>
    <path
        id="path_4"
        d="M 72.88 166.13 M 57 166.13 C 56.914 162.724 57.928 159.379 59.889 156.592 C 61.85 153.805 64.657 151.723 67.892 150.654 C 71.127 149.584 74.623 149.584 77.858 150.654 C 81.093 151.723 83.9 153.805 85.861 156.592 C 87.822 159.379 88.836 162.724 88.75 166.13 C 88.836 169.536 87.822 172.881 85.861 175.668 C 83.9 178.455 81.093 180.537 77.858 181.606 C 74.623 182.676 71.127 182.676 67.892 181.606 C 64.657 180.537 61.85 178.455 59.889 175.668 C 57.928 172.881 56.914 169.536 57 166.13"
        fill="#407ad2"/>
    <path
        id="path_5"
        d="M 104.63 70.88 M 88.75 70.88 C 88.664 67.474 89.678 64.129 91.639 61.342 C 93.6 58.555 96.407 56.473 99.642 55.404 C 102.877 54.334 106.373 54.334 109.608 55.404 C 112.843 56.473 115.65 58.555 117.611 61.342 C 119.572 64.129 120.586 67.474 120.5 70.88 C 120.586 74.286 119.572 77.631 117.611 80.418 C 115.65 83.205 112.843 85.287 109.608 86.356 C 106.373 87.426 102.877 87.426 99.642 86.356 C 96.407 85.287 93.6 83.205 91.639 80.418 C 89.678 77.631 88.664 74.286 88.75 70.88"
        fill="#407ad2"/>
    <path
        id="path_6"
        d="M 104.63 102.63 M 88.75 102.63 C 88.664 99.224 89.678 95.879 91.639 93.092 C 93.6 90.305 96.407 88.223 99.642 87.154 C 102.877 86.084 106.373 86.084 109.608 87.154 C 112.843 88.223 115.65 90.305 117.611 93.092 C 119.572 95.879 120.586 99.224 120.5 102.63 C 120.586 106.036 119.572 109.381 117.611 112.168 C 115.65 114.955 112.843 117.037 109.608 118.106 C 106.373 119.176 102.877 119.176 99.642 118.106 C 96.407 117.037 93.6 114.955 91.639 112.168 C 89.678 109.381 88.664 106.036 88.75 102.63"
        fill="#33e5fd"/>
    <path
        id="path_7"
        d="M 104.63 134.38 M 88.75 134.38 C 88.664 130.974 89.678 127.629 91.639 124.842 C 93.6 122.055 96.407 119.973 99.642 118.904 C 102.877 117.834 106.373 117.834 109.608 118.904 C 112.843 119.973 115.65 122.055 117.611 124.842 C 119.572 127.629 120.586 130.974 120.5 134.38 C 120.586 137.786 119.572 141.131 117.611 143.918 C 115.65 146.705 112.843 148.787 109.608 149.856 C 106.373 150.926 102.877 150.926 99.642 149.856 C 96.407 148.787 93.6 146.705 91.639 143.918 C 89.678 141.131 88.664 137.786 88.75 134.38"
        fill="#407ad2"/>
    <path
        id="path_8"
        d="M 104.63 166.13 M 88.75 166.13 C 88.664 162.724 89.678 159.379 91.639 156.592 C 93.6 153.805 96.407 151.723 99.642 150.654 C 102.877 149.584 106.373 149.584 109.608 150.654 C 112.843 151.723 115.65 153.805 117.611 156.592 C 119.572 159.379 120.586 162.724 120.5 166.13 C 120.586 169.536 119.572 172.881 117.611 175.668 C 115.65 178.455 112.843 180.537 109.608 181.606 C 106.373 182.676 102.877 182.676 99.642 181.606 C 96.407 180.537 93.6 178.455 91.639 175.668 C 89.678 172.881 88.664 169.536 88.75 166.13"
        fill="#33e5fd"/>
    <path
        id="path_9"
        d="M 136.38 70.88 M 120.5 70.88 C 120.414 67.474 121.428 64.129 123.389 61.342 C 125.35 58.555 128.157 56.473 131.392 55.404 C 134.627 54.334 138.123 54.334 141.358 55.404 C 144.593 56.473 147.4 58.555 149.361 61.342 C 151.322 64.129 152.336 67.474 152.25 70.88 C 152.336 74.286 151.322 77.631 149.361 80.418 C 147.4 83.205 144.593 85.287 141.358 86.356 C 138.123 87.426 134.627 87.426 131.392 86.356 C 128.157 85.287 125.35 83.205 123.389 80.418 C 121.428 77.631 120.414 74.286 120.5 70.88"
        fill="#33e5fd"/>
    <path
        id="path_10"
        d="M 136.38 102.63 M 120.5 102.63 C 120.414 99.224 121.428 95.879 123.389 93.092 C 125.35 90.305 128.157 88.223 131.392 87.154 C 134.627 86.084 138.123 86.084 141.358 87.154 C 144.593 88.223 147.4 90.305 149.361 93.092 C 151.322 95.879 152.336 99.224 152.25 102.63 C 152.336 106.036 151.322 109.381 149.361 112.168 C 147.4 114.955 144.593 117.037 141.358 118.106 C 138.123 119.176 134.627 119.176 131.392 118.106 C 128.157 117.037 125.35 114.955 123.389 112.168 C 121.428 109.381 120.414 106.036 120.5 102.63"
        fill="#407ad2"/>
    <path
        id="path_11"
        d="M 136.38 134.38 M 120.5 134.38 C 120.414 130.974 121.428 127.629 123.389 124.842 C 125.35 122.055 128.157 119.973 131.392 118.904 C 134.627 117.834 138.123 117.834 141.358 118.904 C 144.593 119.973 147.4 122.055 149.361 124.842 C 151.322 127.629 152.336 130.974 152.25 134.38 C 152.336 137.786 151.322 141.131 149.361 143.918 C 147.4 146.705 144.593 148.787 141.358 149.856 C 138.123 150.926 134.627 150.926 131.392 149.856 C 128.157 148.787 125.35 146.705 123.389 143.918 C 121.428 141.131 120.414 137.786 120.5 134.38"
        fill="#33e5fd"/>
    <path
        id="path_12"
        d="M 136.38 166.13 M 120.5 166.13 C 120.414 162.724 121.428 159.379 123.389 156.592 C 125.35 153.805 128.157 151.723 131.392 150.654 C 134.627 149.584 138.123 149.584 141.358 150.654 C 144.593 151.723 147.4 153.805 149.361 156.592 C 151.322 159.379 152.336 162.724 152.25 166.13 C 152.336 169.536 151.322 172.881 149.361 175.668 C 147.4 178.455 144.593 180.537 141.358 181.606 C 138.123 182.676 134.627 182.676 131.392 181.606 C 128.157 180.537 125.35 178.455 123.389 175.668 C 121.428 172.881 120.414 169.536 120.5 166.13"
        fill="#407ad2"/>
    <path
        id="path_13"
        d="M 168.13 70.88 M 152.25 70.88 C 152.164 67.474 153.178 64.129 155.139 61.342 C 157.1 58.555 159.907 56.473 163.142 55.404 C 166.377 54.334 169.873 54.334 173.108 55.404 C 176.343 56.473 179.15 58.555 181.111 61.342 C 183.072 64.129 184.086 67.474 184 70.88 C 184.086 74.286 183.072 77.631 181.111 80.418 C 179.15 83.205 176.343 85.287 173.108 86.356 C 169.873 87.426 166.377 87.426 163.142 86.356 C 159.907 85.287 157.1 83.205 155.139 80.418 C 153.178 77.631 152.164 74.286 152.25 70.88"
        fill="#407ad2"/>
    <path
        id="path_14"
        d="M 168.13 102.63 M 152.25 102.63 C 152.164 99.224 153.178 95.879 155.139 93.092 C 157.1 90.305 159.907 88.223 163.142 87.154 C 166.377 86.084 169.873 86.084 173.108 87.154 C 176.343 88.223 179.15 90.305 181.111 93.092 C 183.072 95.879 184.086 99.224 184 102.63 C 184.086 106.036 183.072 109.381 181.111 112.168 C 179.15 114.955 176.343 117.037 173.108 118.106 C 169.873 119.176 166.377 119.176 163.142 118.106 C 159.907 117.037 157.1 114.955 155.139 112.168 C 153.178 109.381 152.164 106.036 152.25 102.63"
        fill="#33e5fd"/>
    <path
        id="path_15"
        d="M 168.13 134.38 M 152.25 134.38 C 152.164 130.974 153.178 127.629 155.139 124.842 C 157.1 122.055 159.907 119.973 163.142 118.904 C 166.377 117.834 169.873 117.834 173.108 118.904 C 176.343 119.973 179.15 122.055 181.111 124.842 C 183.072 127.629 184.086 130.974 184 134.38 C 184.086 137.786 183.072 141.131 181.111 143.918 C 179.15 146.705 176.343 148.787 173.108 149.856 C 169.873 150.926 166.377 150.926 163.142 149.856 C 159.907 148.787 157.1 146.705 155.139 143.918 C 153.178 141.131 152.164 137.786 152.25 134.38"
        fill="#407ad2"/>
    <path
        id="path_16"
        d="M 168.13 166.13 M 152.25 166.13 C 152.164 162.724 153.178 159.379 155.139 156.592 C 157.1 153.805 159.907 151.723 163.142 150.654 C 166.377 149.584 169.873 149.584 173.108 150.654 C 176.343 151.723 179.15 153.805 181.111 156.592 C 183.072 159.379 184.086 162.724 184 166.13 C 184.086 169.536 183.072 172.881 181.111 175.668 C 179.15 178.455 176.343 180.537 173.108 181.606 C 169.873 182.676 166.377 182.676 163.142 181.606 C 159.907 180.537 157.1 178.455 155.139 175.668 C 153.178 172.881 152.164 169.536 152.25 166.13"
        fill="#33e5fd"/>
</svg>
