<svg
    xmlns="http://www.w3.org/2000/svg"
    viewBox="0 0 237 237"
    id="vector">
    <path
        id="path_17"
        d="M 118.5 118.5 M 0 118.5 C 0 87.084 12.493 56.922 34.708 34.708 C 56.922 12.493 87.084 0 118.5 0 C 149.916 0 180.078 12.493 202.292 34.708 C 224.507 56.922 237 87.084 237 118.5 C 237 149.916 224.507 180.078 202.292 202.292 C 180.078 224.507 149.916 237 118.5 237 C 87.084 237 56.922 224.507 34.708 202.292 C 12.493 180.078 0 149.916 0 118.5"
        fill="#782050"/>
    <path
        id="path_18"
        d="M 140.21 55 L 59.09 55 L 55 56.06 L 55 77.05 L 140.21 55 Z M 165.56 55 L 55 83.61 L 55 104.6 L 182 71.74 L 182 55 L 165.56 55 Z M 182 78.29 L 55 111.15 L 55 132.14 L 182 99.28 L 182 78.29 Z M 182 105.84 L 55 138.7 L 55 159.69 L 182 126.83 L 182 105.84 Z M 182 133.39 L 55 166.25 L 55 182 L 75.25 182 L 182 154.38 L 182 133.39 Z M 182 160.94 L 100.6 182 L 181.72 182 L 182 181.93 L 182 160.94 Z"
        fill="#fd33a0"
        fill-rule="evenodd"/>
</svg>
