<svg
    xmlns="http://www.w3.org/2000/svg"
    viewBox="0 0 237 237"
    id="vector">
    <path
        id="path"
        d="M 118.5 118.5 M 0 118.5 C 0 87.084 12.493 56.922 34.708 34.708 C 56.922 12.493 87.084 0 118.5 0 C 149.916 0 180.078 12.493 202.292 34.708 C 224.507 56.922 237 87.084 237 118.5 C 237 149.916 224.507 180.078 202.292 202.292 C 180.078 224.507 149.916 237 118.5 237 C 87.084 237 56.922 224.507 34.708 202.292 C 12.493 180.078 0 149.916 0 118.5"
        fill="#ffe68c"/>
    <path
        id="path_1"
        d="M 177 55 L 145.25 55 L 145.25 86.75 L 113.5 86.75 L 113.5 118.5 L 81.75 118.5 L 81.75 150.25 L 50 150.25 L 50 182 L 81.75 182 L 113.5 182 L 145.25 182 L 177 182 L 177 55 Z"
        fill="#ffb422"
        fill-rule="evenodd"/>
</svg>
